<svg width="12" height="12" viewBox="0 0 12 12" fill="none" xmlns="http://www.w3.org/2000/svg">
<path d="M5.9998 2.2125C6.06647 2.2125 6.12897 2.22283 6.1873 2.2435C6.24564 2.26417 6.2998 2.29967 6.3498 2.35L9.6498 5.65C9.7498 5.75 9.7998 5.86867 9.7998 6.006C9.7998 6.14333 9.7498 6.26217 9.6498 6.3625C9.5498 6.4625 9.43314 6.5125 9.2998 6.5125C9.16647 6.5125 9.0498 6.4625 8.9498 6.3625L6.4998 3.9125V9.5125C6.4998 9.65417 6.4518 9.77083 6.3558 9.8625C6.2598 9.95417 6.14114 10 5.9998 10C5.85814 10 5.73931 9.952 5.64331 9.856C5.54731 9.76 5.49947 9.64133 5.4998 9.5V3.9125L3.04981 6.3625C2.94981 6.4625 2.83314 6.5125 2.6998 6.5125C2.56647 6.5125 2.44981 6.4625 2.34981 6.3625C2.24981 6.2625 2.1998 6.14367 2.1998 6.006C2.1998 5.86833 2.24981 5.74967 2.34981 5.65L5.64981 2.35C5.69981 2.3 5.75397 2.2645 5.8123 2.2435C5.87064 2.2225 5.93314 2.21217 5.9998 2.2125Z" fill="black"/>
</svg>
